<mxfile host="app.diagrams.net" modified="2023-12-14T08:53:44.798Z" agent="Mozilla/5.0 (Windows NT 10.0; Win64; x64) AppleWebKit/537.36 (KHTML, like Gecko) Chrome/120.0.0.0 Safari/537.36" etag="O4xk_53FgyTJ9wO9zMP_" version="22.1.8" type="github">
  <diagram name="第 1 页" id="RnmGW48elav9HPYrjXdp">
    <mxGraphModel dx="2048" dy="725" grid="1" gridSize="10" guides="1" tooltips="1" connect="1" arrows="0" fold="1" page="1" pageScale="1" pageWidth="827" pageHeight="1169" math="0" shadow="0">
      <root>
        <mxCell id="0" />
        <mxCell id="1" parent="0" />
        <mxCell id="i-CGkapFzdkMviYiB0aP-14" value="" style="childLayout=tableLayout;recursiveResize=0;shadow=0;fillColor=none;" parent="1" vertex="1">
          <mxGeometry x="414" y="202" width="186.0000000000009" height="86" as="geometry" />
        </mxCell>
        <mxCell id="i-CGkapFzdkMviYiB0aP-15" value="" style="shape=tableRow;horizontal=0;startSize=0;swimlaneHead=0;swimlaneBody=0;top=0;left=0;bottom=0;right=0;dropTarget=0;collapsible=0;recursiveResize=0;expand=0;fontStyle=0;fillColor=none;strokeColor=inherit;" parent="i-CGkapFzdkMviYiB0aP-14" vertex="1">
          <mxGeometry width="186.0000000000009" height="30" as="geometry" />
        </mxCell>
        <mxCell id="i-CGkapFzdkMviYiB0aP-16" value="&lt;b&gt;&lt;font style=&quot;font-size: 13px;&quot;&gt;虚拟地址&lt;/font&gt;&lt;/b&gt;" style="connectable=0;recursiveResize=0;strokeColor=inherit;fillColor=none;align=center;whiteSpace=wrap;html=1;" parent="i-CGkapFzdkMviYiB0aP-15" vertex="1">
          <mxGeometry width="76" height="30" as="geometry">
            <mxRectangle width="76" height="30" as="alternateBounds" />
          </mxGeometry>
        </mxCell>
        <mxCell id="i-CGkapFzdkMviYiB0aP-17" value="&lt;b&gt;&lt;font style=&quot;font-size: 13px;&quot;&gt;值地址&lt;/font&gt;&lt;/b&gt;" style="connectable=0;recursiveResize=0;strokeColor=inherit;fillColor=none;align=center;whiteSpace=wrap;html=1;" parent="i-CGkapFzdkMviYiB0aP-15" vertex="1">
          <mxGeometry x="76" width="60" height="30" as="geometry">
            <mxRectangle width="60" height="30" as="alternateBounds" />
          </mxGeometry>
        </mxCell>
        <mxCell id="lQRCVsG3vOxQOKSnZCJ6-1" value="&lt;b&gt;&lt;font style=&quot;font-size: 14px;&quot;&gt;valid&lt;/font&gt;&lt;/b&gt;" style="connectable=0;recursiveResize=0;strokeColor=inherit;fillColor=none;align=center;whiteSpace=wrap;html=1;" vertex="1" parent="i-CGkapFzdkMviYiB0aP-15">
          <mxGeometry x="136" width="50" height="30" as="geometry">
            <mxRectangle width="50" height="30" as="alternateBounds" />
          </mxGeometry>
        </mxCell>
        <mxCell id="i-CGkapFzdkMviYiB0aP-19" style="shape=tableRow;horizontal=0;startSize=0;swimlaneHead=0;swimlaneBody=0;top=0;left=0;bottom=0;right=0;dropTarget=0;collapsible=0;recursiveResize=0;expand=0;fontStyle=0;fillColor=none;strokeColor=inherit;" parent="i-CGkapFzdkMviYiB0aP-14" vertex="1">
          <mxGeometry y="30" width="186.0000000000009" height="26" as="geometry" />
        </mxCell>
        <mxCell id="i-CGkapFzdkMviYiB0aP-20" value="" style="connectable=0;recursiveResize=0;strokeColor=inherit;fillColor=none;align=center;whiteSpace=wrap;html=1;" parent="i-CGkapFzdkMviYiB0aP-19" vertex="1">
          <mxGeometry width="76" height="26" as="geometry">
            <mxRectangle width="76" height="26" as="alternateBounds" />
          </mxGeometry>
        </mxCell>
        <mxCell id="i-CGkapFzdkMviYiB0aP-21" value="" style="connectable=0;recursiveResize=0;strokeColor=inherit;fillColor=none;align=center;whiteSpace=wrap;html=1;" parent="i-CGkapFzdkMviYiB0aP-19" vertex="1">
          <mxGeometry x="76" width="60" height="26" as="geometry">
            <mxRectangle width="60" height="26" as="alternateBounds" />
          </mxGeometry>
        </mxCell>
        <mxCell id="lQRCVsG3vOxQOKSnZCJ6-2" style="connectable=0;recursiveResize=0;strokeColor=inherit;fillColor=none;align=center;whiteSpace=wrap;html=1;" vertex="1" parent="i-CGkapFzdkMviYiB0aP-19">
          <mxGeometry x="136" width="50" height="26" as="geometry">
            <mxRectangle width="50" height="26" as="alternateBounds" />
          </mxGeometry>
        </mxCell>
        <mxCell id="i-CGkapFzdkMviYiB0aP-23" style="shape=tableRow;horizontal=0;startSize=0;swimlaneHead=0;swimlaneBody=0;top=0;left=0;bottom=0;right=0;dropTarget=0;collapsible=0;recursiveResize=0;expand=0;fontStyle=0;fillColor=none;strokeColor=inherit;" parent="i-CGkapFzdkMviYiB0aP-14" vertex="1">
          <mxGeometry y="56" width="186.0000000000009" height="30" as="geometry" />
        </mxCell>
        <mxCell id="i-CGkapFzdkMviYiB0aP-24" value="" style="connectable=0;recursiveResize=0;strokeColor=inherit;fillColor=none;align=center;whiteSpace=wrap;html=1;" parent="i-CGkapFzdkMviYiB0aP-23" vertex="1">
          <mxGeometry width="76" height="30" as="geometry">
            <mxRectangle width="76" height="30" as="alternateBounds" />
          </mxGeometry>
        </mxCell>
        <mxCell id="i-CGkapFzdkMviYiB0aP-25" value="" style="connectable=0;recursiveResize=0;strokeColor=inherit;fillColor=none;align=center;whiteSpace=wrap;html=1;" parent="i-CGkapFzdkMviYiB0aP-23" vertex="1">
          <mxGeometry x="76" width="60" height="30" as="geometry">
            <mxRectangle width="60" height="30" as="alternateBounds" />
          </mxGeometry>
        </mxCell>
        <mxCell id="lQRCVsG3vOxQOKSnZCJ6-3" style="connectable=0;recursiveResize=0;strokeColor=inherit;fillColor=none;align=center;whiteSpace=wrap;html=1;" vertex="1" parent="i-CGkapFzdkMviYiB0aP-23">
          <mxGeometry x="136" width="50" height="30" as="geometry">
            <mxRectangle width="50" height="30" as="alternateBounds" />
          </mxGeometry>
        </mxCell>
        <mxCell id="i-CGkapFzdkMviYiB0aP-28" value="&lt;b&gt;1&lt;/b&gt;" style="text;html=1;strokeColor=none;fillColor=none;align=center;verticalAlign=middle;whiteSpace=wrap;rounded=0;" parent="1" vertex="1">
          <mxGeometry x="370" y="200" width="60" height="30" as="geometry" />
        </mxCell>
        <mxCell id="i-CGkapFzdkMviYiB0aP-29" value="&lt;b&gt;...&lt;/b&gt;" style="text;html=1;align=center;verticalAlign=middle;resizable=0;points=[];autosize=1;strokeColor=none;fillColor=none;" parent="1" vertex="1">
          <mxGeometry x="384" y="230" width="30" height="30" as="geometry" />
        </mxCell>
        <mxCell id="i-CGkapFzdkMviYiB0aP-30" value="&lt;b&gt;N&lt;/b&gt;" style="text;html=1;align=center;verticalAlign=middle;resizable=0;points=[];autosize=1;strokeColor=none;fillColor=none;" parent="1" vertex="1">
          <mxGeometry x="385" y="268" width="30" height="30" as="geometry" />
        </mxCell>
        <mxCell id="i-CGkapFzdkMviYiB0aP-32" value="" style="shape=table;startSize=0;container=1;collapsible=0;childLayout=tableLayout;fontSize=16;" parent="1" vertex="1">
          <mxGeometry x="180" y="220" width="180" height="200" as="geometry" />
        </mxCell>
        <mxCell id="i-CGkapFzdkMviYiB0aP-33" value="" style="shape=tableRow;horizontal=0;startSize=0;swimlaneHead=0;swimlaneBody=0;strokeColor=inherit;top=0;left=0;bottom=0;right=0;collapsible=0;dropTarget=0;fillColor=none;points=[[0,0.5],[1,0.5]];portConstraint=eastwest;fontSize=16;" parent="i-CGkapFzdkMviYiB0aP-32" vertex="1">
          <mxGeometry width="180" height="40" as="geometry" />
        </mxCell>
        <mxCell id="i-CGkapFzdkMviYiB0aP-34" value="&lt;b&gt;数据块 1&lt;/b&gt;" style="shape=partialRectangle;html=1;whiteSpace=wrap;connectable=0;strokeColor=inherit;overflow=hidden;fillColor=none;top=0;left=0;bottom=0;right=0;pointerEvents=1;fontSize=16;" parent="i-CGkapFzdkMviYiB0aP-33" vertex="1">
          <mxGeometry width="180" height="40" as="geometry">
            <mxRectangle width="180" height="40" as="alternateBounds" />
          </mxGeometry>
        </mxCell>
        <mxCell id="i-CGkapFzdkMviYiB0aP-37" value="" style="shape=tableRow;horizontal=0;startSize=0;swimlaneHead=0;swimlaneBody=0;strokeColor=inherit;top=0;left=0;bottom=0;right=0;collapsible=0;dropTarget=0;fillColor=none;points=[[0,0.5],[1,0.5]];portConstraint=eastwest;fontSize=16;" parent="i-CGkapFzdkMviYiB0aP-32" vertex="1">
          <mxGeometry y="40" width="180" height="40" as="geometry" />
        </mxCell>
        <mxCell id="i-CGkapFzdkMviYiB0aP-38" value="&lt;b&gt;...&lt;/b&gt;" style="shape=partialRectangle;html=1;whiteSpace=wrap;connectable=0;strokeColor=inherit;overflow=hidden;fillColor=none;top=0;left=0;bottom=0;right=0;pointerEvents=1;fontSize=16;" parent="i-CGkapFzdkMviYiB0aP-37" vertex="1">
          <mxGeometry width="180" height="40" as="geometry">
            <mxRectangle width="180" height="40" as="alternateBounds" />
          </mxGeometry>
        </mxCell>
        <mxCell id="i-CGkapFzdkMviYiB0aP-41" value="" style="shape=tableRow;horizontal=0;startSize=0;swimlaneHead=0;swimlaneBody=0;strokeColor=inherit;top=0;left=0;bottom=0;right=0;collapsible=0;dropTarget=0;fillColor=none;points=[[0,0.5],[1,0.5]];portConstraint=eastwest;fontSize=16;" parent="i-CGkapFzdkMviYiB0aP-32" vertex="1">
          <mxGeometry y="80" width="180" height="40" as="geometry" />
        </mxCell>
        <mxCell id="i-CGkapFzdkMviYiB0aP-42" value="&lt;b&gt;数据块 M&lt;/b&gt;" style="shape=partialRectangle;html=1;whiteSpace=wrap;connectable=0;strokeColor=inherit;overflow=hidden;fillColor=none;top=0;left=0;bottom=0;right=0;pointerEvents=1;fontSize=16;" parent="i-CGkapFzdkMviYiB0aP-41" vertex="1">
          <mxGeometry width="180" height="40" as="geometry">
            <mxRectangle width="180" height="40" as="alternateBounds" />
          </mxGeometry>
        </mxCell>
        <mxCell id="i-CGkapFzdkMviYiB0aP-45" style="shape=tableRow;horizontal=0;startSize=0;swimlaneHead=0;swimlaneBody=0;strokeColor=inherit;top=0;left=0;bottom=0;right=0;collapsible=0;dropTarget=0;fillColor=none;points=[[0,0.5],[1,0.5]];portConstraint=eastwest;fontSize=16;" parent="i-CGkapFzdkMviYiB0aP-32" vertex="1">
          <mxGeometry y="120" width="180" height="40" as="geometry" />
        </mxCell>
        <mxCell id="i-CGkapFzdkMviYiB0aP-46" value="&lt;b&gt;索引块&lt;/b&gt;" style="shape=partialRectangle;html=1;whiteSpace=wrap;connectable=0;strokeColor=inherit;overflow=hidden;fillColor=none;top=0;left=0;bottom=0;right=0;pointerEvents=1;fontSize=16;" parent="i-CGkapFzdkMviYiB0aP-45" vertex="1">
          <mxGeometry width="180" height="40" as="geometry">
            <mxRectangle width="180" height="40" as="alternateBounds" />
          </mxGeometry>
        </mxCell>
        <mxCell id="i-CGkapFzdkMviYiB0aP-67" style="shape=tableRow;horizontal=0;startSize=0;swimlaneHead=0;swimlaneBody=0;strokeColor=inherit;top=0;left=0;bottom=0;right=0;collapsible=0;dropTarget=0;fillColor=none;points=[[0,0.5],[1,0.5]];portConstraint=eastwest;fontSize=16;" parent="i-CGkapFzdkMviYiB0aP-32" vertex="1">
          <mxGeometry y="160" width="180" height="40" as="geometry" />
        </mxCell>
        <mxCell id="i-CGkapFzdkMviYiB0aP-68" value="&lt;b&gt;元数据块&lt;/b&gt;" style="shape=partialRectangle;html=1;whiteSpace=wrap;connectable=0;strokeColor=inherit;overflow=hidden;fillColor=none;top=0;left=0;bottom=0;right=0;pointerEvents=1;fontSize=16;" parent="i-CGkapFzdkMviYiB0aP-67" vertex="1">
          <mxGeometry width="180" height="40" as="geometry">
            <mxRectangle width="180" height="40" as="alternateBounds" />
          </mxGeometry>
        </mxCell>
        <mxCell id="i-CGkapFzdkMviYiB0aP-47" value="" style="childLayout=tableLayout;recursiveResize=0;shadow=0;fillColor=none;" parent="1" vertex="1">
          <mxGeometry x="-30" y="330" width="160" height="100" as="geometry" />
        </mxCell>
        <mxCell id="i-CGkapFzdkMviYiB0aP-48" value="" style="shape=tableRow;horizontal=0;startSize=0;swimlaneHead=0;swimlaneBody=0;top=0;left=0;bottom=0;right=0;dropTarget=0;collapsible=0;recursiveResize=0;expand=0;fontStyle=0;fillColor=none;strokeColor=inherit;" parent="i-CGkapFzdkMviYiB0aP-47" vertex="1">
          <mxGeometry width="160" height="38" as="geometry" />
        </mxCell>
        <mxCell id="i-CGkapFzdkMviYiB0aP-49" value="&lt;b&gt;&lt;font style=&quot;font-size: 13px;&quot;&gt;虚拟地址&lt;/font&gt;&lt;/b&gt;" style="connectable=0;recursiveResize=0;strokeColor=inherit;fillColor=none;align=center;whiteSpace=wrap;html=1;" parent="i-CGkapFzdkMviYiB0aP-48" vertex="1">
          <mxGeometry width="66" height="38" as="geometry">
            <mxRectangle width="66" height="38" as="alternateBounds" />
          </mxGeometry>
        </mxCell>
        <mxCell id="i-CGkapFzdkMviYiB0aP-50" value="&lt;b&gt;&lt;font style=&quot;font-size: 13px;&quot;&gt;数据块 offset&lt;/font&gt;&lt;/b&gt;" style="connectable=0;recursiveResize=0;strokeColor=inherit;fillColor=none;align=center;whiteSpace=wrap;html=1;" parent="i-CGkapFzdkMviYiB0aP-48" vertex="1">
          <mxGeometry x="66" width="94" height="38" as="geometry">
            <mxRectangle width="94" height="38" as="alternateBounds" />
          </mxGeometry>
        </mxCell>
        <mxCell id="i-CGkapFzdkMviYiB0aP-52" style="shape=tableRow;horizontal=0;startSize=0;swimlaneHead=0;swimlaneBody=0;top=0;left=0;bottom=0;right=0;dropTarget=0;collapsible=0;recursiveResize=0;expand=0;fontStyle=0;fillColor=none;strokeColor=inherit;" parent="i-CGkapFzdkMviYiB0aP-47" vertex="1">
          <mxGeometry y="38" width="160" height="29" as="geometry" />
        </mxCell>
        <mxCell id="i-CGkapFzdkMviYiB0aP-53" value="" style="connectable=0;recursiveResize=0;strokeColor=inherit;fillColor=none;align=center;whiteSpace=wrap;html=1;" parent="i-CGkapFzdkMviYiB0aP-52" vertex="1">
          <mxGeometry width="66" height="29" as="geometry">
            <mxRectangle width="66" height="29" as="alternateBounds" />
          </mxGeometry>
        </mxCell>
        <mxCell id="i-CGkapFzdkMviYiB0aP-54" value="" style="connectable=0;recursiveResize=0;strokeColor=inherit;fillColor=none;align=center;whiteSpace=wrap;html=1;" parent="i-CGkapFzdkMviYiB0aP-52" vertex="1">
          <mxGeometry x="66" width="94" height="29" as="geometry">
            <mxRectangle width="94" height="29" as="alternateBounds" />
          </mxGeometry>
        </mxCell>
        <mxCell id="i-CGkapFzdkMviYiB0aP-56" style="shape=tableRow;horizontal=0;startSize=0;swimlaneHead=0;swimlaneBody=0;top=0;left=0;bottom=0;right=0;dropTarget=0;collapsible=0;recursiveResize=0;expand=0;fontStyle=0;fillColor=none;strokeColor=inherit;" parent="i-CGkapFzdkMviYiB0aP-47" vertex="1">
          <mxGeometry y="67" width="160" height="33" as="geometry" />
        </mxCell>
        <mxCell id="i-CGkapFzdkMviYiB0aP-57" value="" style="connectable=0;recursiveResize=0;strokeColor=inherit;fillColor=none;align=center;whiteSpace=wrap;html=1;" parent="i-CGkapFzdkMviYiB0aP-56" vertex="1">
          <mxGeometry width="66" height="33" as="geometry">
            <mxRectangle width="66" height="33" as="alternateBounds" />
          </mxGeometry>
        </mxCell>
        <mxCell id="i-CGkapFzdkMviYiB0aP-58" value="" style="connectable=0;recursiveResize=0;strokeColor=inherit;fillColor=none;align=center;whiteSpace=wrap;html=1;" parent="i-CGkapFzdkMviYiB0aP-56" vertex="1">
          <mxGeometry x="66" width="94" height="33" as="geometry">
            <mxRectangle width="94" height="33" as="alternateBounds" />
          </mxGeometry>
        </mxCell>
        <mxCell id="i-CGkapFzdkMviYiB0aP-60" value="&lt;b&gt;1&lt;/b&gt;" style="text;html=1;strokeColor=none;fillColor=none;align=center;verticalAlign=middle;whiteSpace=wrap;rounded=0;" parent="1" vertex="1">
          <mxGeometry x="-65" y="332" width="40" height="32" as="geometry" />
        </mxCell>
        <mxCell id="i-CGkapFzdkMviYiB0aP-63" value="&lt;b&gt;M&lt;/b&gt;" style="text;html=1;strokeColor=none;fillColor=none;align=center;verticalAlign=middle;whiteSpace=wrap;rounded=0;" parent="1" vertex="1">
          <mxGeometry x="-70" y="400" width="50" height="30" as="geometry" />
        </mxCell>
        <mxCell id="cVA7VHtZrJY00FMu9UYZ-4" value="" style="shape=table;startSize=0;container=1;collapsible=0;childLayout=tableLayout;fontSize=16;" parent="1" vertex="1">
          <mxGeometry x="210" y="50" width="280" height="40" as="geometry" />
        </mxCell>
        <mxCell id="cVA7VHtZrJY00FMu9UYZ-9" value="" style="shape=tableRow;horizontal=0;startSize=0;swimlaneHead=0;swimlaneBody=0;strokeColor=inherit;top=0;left=0;bottom=0;right=0;collapsible=0;dropTarget=0;fillColor=none;points=[[0,0.5],[1,0.5]];portConstraint=eastwest;fontSize=16;" parent="cVA7VHtZrJY00FMu9UYZ-4" vertex="1">
          <mxGeometry width="280" height="40" as="geometry" />
        </mxCell>
        <mxCell id="cVA7VHtZrJY00FMu9UYZ-10" value="&lt;b&gt;Dirty&lt;/b&gt;" style="shape=partialRectangle;html=1;whiteSpace=wrap;connectable=0;strokeColor=inherit;overflow=hidden;fillColor=none;top=0;left=0;bottom=0;right=0;pointerEvents=1;fontSize=16;" parent="cVA7VHtZrJY00FMu9UYZ-9" vertex="1">
          <mxGeometry width="50" height="40" as="geometry">
            <mxRectangle width="50" height="40" as="alternateBounds" />
          </mxGeometry>
        </mxCell>
        <mxCell id="cVA7VHtZrJY00FMu9UYZ-11" value="&lt;b&gt;Address Range&lt;/b&gt;" style="shape=partialRectangle;html=1;whiteSpace=wrap;connectable=0;strokeColor=inherit;overflow=hidden;fillColor=none;top=0;left=0;bottom=0;right=0;pointerEvents=1;fontSize=16;" parent="cVA7VHtZrJY00FMu9UYZ-9" vertex="1">
          <mxGeometry x="50" width="130" height="40" as="geometry">
            <mxRectangle width="130" height="40" as="alternateBounds" />
          </mxGeometry>
        </mxCell>
        <mxCell id="cVA7VHtZrJY00FMu9UYZ-12" value="&lt;b&gt;Payload&lt;/b&gt;" style="shape=partialRectangle;html=1;whiteSpace=wrap;connectable=0;strokeColor=inherit;overflow=hidden;fillColor=none;top=0;left=0;bottom=0;right=0;pointerEvents=1;fontSize=16;" parent="cVA7VHtZrJY00FMu9UYZ-9" vertex="1">
          <mxGeometry x="180" width="100" height="40" as="geometry">
            <mxRectangle width="100" height="40" as="alternateBounds" />
          </mxGeometry>
        </mxCell>
        <mxCell id="n2zZ6T7pXfow_gOLzxN9-1" value="" style="endArrow=classic;html=1;rounded=0;strokeWidth=1;" parent="1" edge="1">
          <mxGeometry width="50" height="50" relative="1" as="geometry">
            <mxPoint x="180" y="360" as="sourcePoint" />
            <mxPoint x="139" y="360" as="targetPoint" />
          </mxGeometry>
        </mxCell>
        <mxCell id="n2zZ6T7pXfow_gOLzxN9-2" value="" style="endArrow=classic;html=1;rounded=0;entryX=0;entryY=0.5;entryDx=0;entryDy=0;exitX=0;exitY=0.5;exitDx=0;exitDy=0;" parent="1" source="i-CGkapFzdkMviYiB0aP-60" target="i-CGkapFzdkMviYiB0aP-33" edge="1">
          <mxGeometry width="50" height="50" relative="1" as="geometry">
            <mxPoint x="-120" y="340" as="sourcePoint" />
            <mxPoint x="-160" y="333.5" as="targetPoint" />
            <Array as="points">
              <mxPoint x="-100" y="348" />
              <mxPoint x="-100" y="240" />
            </Array>
          </mxGeometry>
        </mxCell>
        <mxCell id="n2zZ6T7pXfow_gOLzxN9-4" value="" style="endArrow=classic;html=1;rounded=0;entryX=0;entryY=0.5;entryDx=0;entryDy=0;exitX=0;exitY=0.5;exitDx=0;exitDy=0;" parent="1" target="i-CGkapFzdkMviYiB0aP-41" edge="1" source="i-CGkapFzdkMviYiB0aP-63">
          <mxGeometry width="50" height="50" relative="1" as="geometry">
            <mxPoint x="-100" y="420" as="sourcePoint" />
            <mxPoint x="183" y="314" as="targetPoint" />
            <Array as="points">
              <mxPoint x="-120" y="415" />
              <mxPoint x="-120" y="320" />
            </Array>
          </mxGeometry>
        </mxCell>
        <mxCell id="n2zZ6T7pXfow_gOLzxN9-6" value="" style="endArrow=classic;html=1;rounded=0;" parent="1" edge="1">
          <mxGeometry width="50" height="50" relative="1" as="geometry">
            <mxPoint x="360" y="243" as="sourcePoint" />
            <mxPoint x="380" y="243" as="targetPoint" />
          </mxGeometry>
        </mxCell>
        <mxCell id="n2zZ6T7pXfow_gOLzxN9-8" value="&lt;b&gt;...&lt;/b&gt;" style="text;html=1;strokeColor=none;fillColor=none;align=center;verticalAlign=middle;whiteSpace=wrap;rounded=0;" parent="1" vertex="1">
          <mxGeometry x="-65" y="364" width="40" height="32" as="geometry" />
        </mxCell>
        <mxCell id="n2zZ6T7pXfow_gOLzxN9-9" value="" style="endArrow=classic;html=1;rounded=0;entryX=0;entryY=0.5;entryDx=0;entryDy=0;exitX=0;exitY=0.5;exitDx=0;exitDy=0;" parent="1" source="n2zZ6T7pXfow_gOLzxN9-8" edge="1">
          <mxGeometry width="50" height="50" relative="1" as="geometry">
            <mxPoint x="-100" y="396" as="sourcePoint" />
            <mxPoint x="180" y="280" as="targetPoint" />
            <Array as="points">
              <mxPoint x="-110" y="380" />
              <mxPoint x="-110" y="280" />
            </Array>
          </mxGeometry>
        </mxCell>
      </root>
    </mxGraphModel>
  </diagram>
</mxfile>
